<svg width="451" height="344" viewBox="0 0 451 344" fill="none" xmlns="http://www.w3.org/2000/svg">
<g clip-path="url(#clip0_20_286)">
<path d="M451 184.705V329.217C450.995 333.136 449.438 336.894 446.67 339.665C443.902 342.436 440.148 343.995 436.233 344H325.507L326.536 342.697L449.698 186.359L451 184.705Z" fill="#F2F2F2"/>
<path d="M176.243 133.8H49.0978C48.056 133.8 47.0568 134.215 46.3201 134.952C45.5835 135.69 45.1696 136.69 45.1696 137.733C45.1696 138.776 45.5835 139.776 46.3201 140.514C47.0568 141.251 48.056 141.665 49.0978 141.665H176.243C177.284 141.665 178.284 141.251 179.02 140.514C179.757 139.776 180.171 138.776 180.171 137.733C180.171 136.69 179.757 135.69 179.02 134.952C178.284 134.215 177.284 133.8 176.243 133.8Z" fill="#E6E6E6"/>
<path d="M88.5193 111.75H49.0978C48.056 111.75 47.0568 112.165 46.3201 112.902C45.5835 113.64 45.1696 114.64 45.1696 115.683C45.1696 116.726 45.5835 117.726 46.3201 118.463C47.0568 119.201 48.056 119.615 49.0978 119.615H88.5194C89.5612 119.615 90.5603 119.201 91.297 118.463C92.0337 117.726 92.4475 116.726 92.4475 115.683C92.4475 114.64 92.0337 113.64 91.297 112.902C90.5603 112.165 89.5611 111.75 88.5193 111.75Z" fill="#E6E6E6"/>
<path d="M436.234 0H14.7665C10.8516 0.00471905 7.09845 1.56371 4.33022 4.33502C1.56198 7.10632 0.00471383 10.8637 0 14.7829V329.217C0.00471383 333.136 1.56198 336.894 4.33022 339.665C7.09845 342.436 10.8516 343.995 14.7665 344H436.234C440.148 343.995 443.902 342.436 446.67 339.665C449.438 336.894 450.995 333.136 451 329.217V14.7829C450.995 10.8637 449.438 7.10632 446.67 4.33502C443.902 1.56371 440.148 0.00471905 436.234 0ZM449.698 329.217C449.698 330.987 449.35 332.74 448.673 334.376C447.997 336.011 447.005 337.497 445.755 338.749C444.504 340.001 443.02 340.993 441.386 341.671C439.753 342.348 438.002 342.697 436.234 342.697H14.7665C11.1954 342.697 7.77054 341.277 5.24538 338.749C2.72021 336.221 1.30159 332.792 1.30159 329.217V102.728C1.30159 75.8284 11.9756 50.0306 30.9754 31.0097C49.9752 11.9888 75.7445 1.30303 102.614 1.30303H436.234C438.002 1.30303 439.753 1.6517 441.386 2.32912C443.02 3.00655 444.504 3.99947 445.755 5.25119C447.005 6.50291 447.997 7.98891 448.673 9.62436C449.35 11.2598 449.698 13.0127 449.698 14.7829V329.217Z" fill="#E6E6E6"/>
<path d="M409.929 56.8568H41.1041C40.9315 56.8568 40.766 56.7881 40.6439 56.666C40.5219 56.5438 40.4533 56.378 40.4533 56.2053C40.4533 56.0325 40.5219 55.8668 40.6439 55.7446C40.766 55.6224 40.9315 55.5537 41.1041 55.5537H409.929C410.101 55.5537 410.267 55.6224 410.389 55.7446C410.511 55.8668 410.579 56.0325 410.579 56.2053C410.579 56.378 410.511 56.5438 410.389 56.666C410.267 56.7881 410.101 56.8568 409.929 56.8568Z" fill="#E6E6E6"/>
<path d="M59.5573 37.298C62.5968 37.298 65.0608 34.7763 65.0608 31.6656C65.0608 28.5549 62.5968 26.0332 59.5573 26.0332C56.5178 26.0332 54.0538 28.5549 54.0538 31.6656C54.0538 34.7763 56.5178 37.298 59.5573 37.298Z" fill="#E6E6E6"/>
<path d="M78.5694 37.298C81.6089 37.298 84.0729 34.7763 84.0729 31.6656C84.0729 28.5549 81.6089 26.0332 78.5694 26.0332C75.5299 26.0332 73.0659 28.5549 73.0659 31.6656C73.0659 34.7763 75.5299 37.298 78.5694 37.298Z" fill="#E6E6E6"/>
<path d="M97.5815 37.298C100.621 37.298 103.085 34.7763 103.085 31.6656C103.085 28.5549 100.621 26.0332 97.5815 26.0332C94.542 26.0332 92.078 28.5549 92.078 31.6656C92.078 34.7763 94.542 37.298 97.5815 37.298Z" fill="#E6E6E6"/>
<path d="M119.26 36.1173C119.174 36.1174 119.088 36.1001 119.008 36.0664C118.928 36.0328 118.856 35.9834 118.795 35.9213L115.082 32.121C114.963 31.9993 114.896 31.8358 114.896 31.6655C114.896 31.4952 114.963 31.3316 115.082 31.2099L118.795 27.41C118.855 27.3478 118.926 27.2981 119.005 27.2637C119.084 27.2293 119.169 27.2109 119.255 27.2095C119.341 27.2082 119.426 27.2239 119.506 27.2557C119.586 27.2876 119.658 27.335 119.72 27.3952C119.781 27.4554 119.83 27.5272 119.864 27.6065C119.898 27.6857 119.915 27.7708 119.916 27.8569C119.916 27.943 119.9 28.0284 119.867 28.108C119.834 28.1877 119.786 28.2601 119.726 28.321L116.457 31.6655L119.726 35.0102C119.815 35.1019 119.876 35.218 119.9 35.344C119.924 35.4699 119.91 35.6002 119.86 35.7184C119.811 35.8366 119.727 35.9375 119.621 36.0085C119.514 36.0794 119.389 36.1173 119.26 36.1173Z" fill="#E6E6E6"/>
<path d="M125.5 36.1173C125.372 36.1173 125.247 36.0794 125.14 36.0084C125.034 35.9375 124.95 35.8366 124.901 35.7184C124.851 35.6002 124.837 35.4699 124.861 35.3439C124.885 35.218 124.946 35.1019 125.035 35.0102L128.303 31.6654L125.035 28.321C124.917 28.1971 124.851 28.0313 124.854 27.8596C124.857 27.688 124.927 27.5243 125.05 27.4043C125.172 27.2842 125.337 27.2175 125.509 27.2185C125.68 27.2196 125.845 27.2884 125.966 27.4099L129.679 31.2099C129.798 31.3316 129.864 31.4951 129.864 31.6654C129.864 31.8358 129.798 31.9993 129.679 32.121L125.966 35.9213C125.905 35.9834 125.833 36.0328 125.753 36.0664C125.673 36.1001 125.587 36.1174 125.5 36.1173Z" fill="#E6E6E6"/>
<path d="M377.039 26.6853H370.134C369.947 26.6852 369.761 26.7221 369.588 26.7938C369.415 26.8655 369.258 26.9706 369.126 27.1031C368.993 27.2356 368.888 27.3929 368.817 27.566C368.745 27.7392 368.708 27.9247 368.708 28.1121V35.0312C368.708 35.2186 368.745 35.4042 368.817 35.5773C368.888 35.7504 368.993 35.9077 369.126 36.0402C369.258 36.1727 369.415 36.2778 369.588 36.3495C369.761 36.4212 369.947 36.4581 370.134 36.458H377.039C377.417 36.4584 377.781 36.3084 378.049 36.0409C378.318 35.7734 378.469 35.4103 378.47 35.0312V28.1121C378.469 27.733 378.318 27.3699 378.049 27.1024C377.781 26.8349 377.417 26.6849 377.039 26.6853Z" fill="#E6E6E6"/>
<path d="M360.118 26.6853H353.213C353.026 26.6852 352.841 26.7221 352.668 26.7938C352.495 26.8655 352.338 26.9706 352.205 27.1031C352.073 27.2356 351.968 27.3929 351.896 27.566C351.825 27.7392 351.788 27.9247 351.788 28.1121V35.0312C351.788 35.2186 351.825 35.4042 351.896 35.5773C351.968 35.7504 352.073 35.9077 352.205 36.0402C352.338 36.1727 352.495 36.2778 352.668 36.3495C352.841 36.4212 353.026 36.4581 353.213 36.458H360.118C360.497 36.4584 360.86 36.3084 361.129 36.0409C361.397 35.7734 361.548 35.4103 361.55 35.0312V28.1121C361.548 27.733 361.397 27.3699 361.129 27.1024C360.86 26.8349 360.497 26.6849 360.118 26.6853Z" fill="#E6E6E6"/>
<path d="M392.983 27.0111H386.078C385.891 27.011 385.706 27.0479 385.533 27.1196C385.36 27.1913 385.203 27.2963 385.07 27.4289C384.938 27.5614 384.833 27.7187 384.761 27.8918C384.69 28.0649 384.653 28.2505 384.653 28.4379V35.357C384.653 35.5444 384.69 35.7299 384.761 35.9031C384.833 36.0762 384.938 36.2335 385.07 36.366C385.203 36.4985 385.36 36.6036 385.533 36.6753C385.706 36.747 385.891 36.7839 386.078 36.7838H392.983C393.362 36.7842 393.725 36.6342 393.993 36.3667C394.262 36.0992 394.413 35.7361 394.415 35.357V28.4379C394.413 28.0588 394.262 27.6957 393.993 27.4282C393.725 27.1607 393.362 27.0107 392.983 27.0111Z" fill="#E6E6E6"/>
<path d="M253.113 29.6432H197.919C197.459 29.6432 197.017 29.8264 196.691 30.1527C196.365 30.4789 196.182 30.9213 196.182 31.3827C196.182 31.8441 196.365 32.2865 196.691 32.6127C197.017 32.939 197.459 33.1222 197.919 33.1222H253.113C253.574 33.1222 254.016 32.939 254.342 32.6127C254.668 32.2865 254.851 31.8441 254.851 31.3827C254.851 30.9213 254.668 30.4789 254.342 30.1527C254.016 29.8264 253.574 29.6432 253.113 29.6432Z" fill="#E6E6E6"/>
<path d="M185.871 174.028L152.865 173.157C148.287 173.036 143.139 173.042 139.874 175.017C136.168 177.257 136.73 181.227 139.806 183.802C142.883 186.377 147.796 187.848 152.618 189.044C178.236 195.398 206.588 196.688 234.116 195.25C261.645 193.813 288.607 189.748 315.437 185.697C317.981 185.313 320.865 184.76 321.903 183.282C322.907 181.853 321.593 180.129 319.553 179.205C317.513 178.281 314.926 177.97 312.431 177.695C267.159 172.737 221.546 171.651 176.089 174.449" fill="#E34F26"/>
<path d="M180.094 139.711C179.562 151.781 183.994 155.58 168.705 154.043C167.672 146.842 172.91 136.85 160.896 139.387C163.303 144.61 154.191 184.239 168.703 177.171C169.518 165.265 164.146 160.042 180.094 161.864C181.373 169.224 175.404 180.055 187.903 177.498C185.497 172.272 194.608 132.646 180.094 139.711Z" fill="#3F3D56"/>
<path d="M260.142 139.711C261.214 140.373 250.321 151.91 250.086 152.855C249.759 152.048 239.363 140.761 240.618 139.711C226.151 132.554 235.167 172.414 232.806 177.501C232.808 177.499 240.618 177.499 240.618 177.499V152.742C251.595 167.564 249.556 165.07 260.142 152.015L260.142 177.499C274.608 184.658 265.593 144.794 267.954 139.709C267.951 139.711 260.142 139.711 260.142 139.711Z" fill="#3F3D56"/>
<path d="M225.65 139.711H194.411C192.576 150.671 198.645 146.995 206.127 147.529L206.126 177.499H213.935V147.529C221.383 147.022 227.508 150.622 225.65 139.711Z" fill="#3F3D56"/>
<path d="M282.269 169.681C280.465 159.772 280.465 149.619 282.269 139.711H274.459C274.504 144.664 274.445 164.652 274.45 173.793C274.449 174.779 274.84 175.726 275.537 176.423C276.233 177.121 277.178 177.514 278.163 177.515C286.031 177.525 301.052 177.467 305.697 177.499L305.697 169.681H282.269Z" fill="#3F3D56"/>
<path d="M82.7687 170.984H51.0268C49.4733 170.984 47.9835 171.601 46.8851 172.701C45.7867 173.801 45.1696 175.292 45.1696 176.847C45.1696 178.402 45.7867 179.894 46.8851 180.993C47.9835 182.093 49.4733 182.711 51.0268 182.711H82.7687C84.3221 182.711 85.8119 182.093 86.9103 180.993C88.0087 179.894 88.6258 178.402 88.6258 176.847C88.6258 175.292 88.0087 173.801 86.9103 172.701C85.8119 171.601 84.3221 170.984 82.7687 170.984Z" fill="#E6E6E6"/>
<path d="M370.557 337.203L364.113 337.203L361.048 312.321L370.558 312.322L370.557 337.203Z" fill="#FFB6B6"/>
<path d="M370.784 343.933L350.969 343.932V343.681C350.969 341.633 351.782 339.67 353.228 338.222C354.674 336.774 356.636 335.96 358.681 335.96L362.301 333.211L369.054 335.961L370.784 335.961L370.784 343.933Z" fill="#2F2E41"/>
<path d="M393.334 337.203L386.891 337.203L383.826 312.321L393.336 312.322L393.334 337.203Z" fill="#FFB6B6"/>
<path d="M393.561 343.933L373.747 343.932V343.681C373.747 341.633 374.559 339.67 376.006 338.222C377.452 336.774 379.414 335.96 381.459 335.96L385.079 333.211L391.832 335.961L393.562 335.961L393.561 343.933Z" fill="#2F2E41"/>
<path d="M354.513 201.631C354.513 201.631 348.313 220.693 349.458 223.202C350.602 225.711 352.554 223.756 350.602 225.711C348.65 227.665 346.945 225.588 348.774 228.907C350.602 232.226 353.372 259.55 354.59 260.873C355.808 262.196 357.483 262.231 355.995 263.517C354.507 264.802 352.554 262.196 354.507 264.802C356.459 267.408 361.64 327.527 361.64 327.527H371.76C371.76 327.527 374.281 324.618 372.854 322.725C371.427 320.832 372.98 320.102 372.854 318.838C372.729 317.575 373.204 314.849 373.292 313.606C373.38 312.362 375.09 282.739 370.981 265.626L378.474 233.043L382.22 272.424C382.22 272.424 378.045 305.457 382.22 316.077C382.22 316.077 378.854 318.883 380.347 320.509C381.84 322.135 383.142 320.832 381.84 322.135C380.539 323.438 383.792 327.999 383.792 327.999L394.856 327.347L401.118 265.626C401.118 265.626 402.174 259.19 401.118 258.087C400.062 256.984 400.062 260.893 400.062 256.984V251.772C400.062 251.772 404.781 219.714 404.699 217.826C404.618 215.938 396.808 202.256 396.808 202.256L354.513 201.631Z" fill="#2F2E41"/>
<path d="M387.235 124.535L371.08 123.423L366.246 131.054L354.604 135.792V173.381C355.816 177.02 356.442 180.829 356.459 184.665C356.415 192.154 354.492 200.976 355.158 202.908C361.666 221.802 397.459 202.908 397.459 202.908L396.808 182.711L397.692 137.066L390.378 131.226L387.235 124.535Z" fill="#E6E6E6"/>
<path d="M353.858 209.791L352.744 197.906L345.874 197.596L347.498 210.119C347.081 210.735 346.844 211.454 346.814 212.197C346.783 212.939 346.96 213.676 347.325 214.324C347.689 214.971 348.227 215.504 348.878 215.862C349.528 216.221 350.266 216.39 351.007 216.352C351.749 216.314 352.465 216.069 353.075 215.646C353.686 215.222 354.166 214.637 354.462 213.955C354.758 213.273 354.858 212.522 354.752 211.787C354.645 211.051 354.335 210.36 353.858 209.791Z" fill="#FFB6B6"/>
<path d="M357.239 134.79L357.048 134.822C355.277 135.123 353.605 135.851 352.178 136.944C350.751 138.037 349.611 139.462 348.858 141.095C346.891 145.355 340.502 173.356 343.303 177.579C345.475 180.854 344.947 180.215 343.926 182.685C342.905 185.156 341.261 182.519 342.608 186.44C343.956 190.361 345.437 189.802 344.186 191.317C342.935 192.832 341.652 192.535 342.868 195.072C344.085 197.609 343.887 198.465 344.117 199.421C344.347 200.376 344.147 207.097 344.147 207.097C344.147 207.097 351.486 206.539 355.138 208.287C355.138 208.287 353.1 201.5 354.252 200.413C355.405 199.326 356.787 199.195 355.8 197.613C354.813 196.032 352.576 195.965 355.011 195.175C357.447 194.385 356.662 180.219 356.662 180.219C360.673 169.703 359.088 152.407 357.239 134.79Z" fill="#E6E6E6"/>
<path d="M401.489 210.639L402.003 198.713L408.849 198.057L407.858 210.646C408.305 211.239 408.578 211.946 408.646 212.686C408.714 213.426 408.574 214.171 408.242 214.836C407.911 215.501 407.401 216.06 406.769 216.451C406.137 216.842 405.409 217.049 404.667 217.048C403.924 217.047 403.196 216.839 402.566 216.447C401.935 216.055 401.426 215.494 401.096 214.828C400.765 214.163 400.627 213.418 400.697 212.678C400.766 211.938 401.041 211.232 401.489 210.639Z" fill="#FFB6B6"/>
<path d="M394.333 135.904L394.525 135.927C396.309 136.137 398.015 136.78 399.496 137.8C400.976 138.82 402.186 140.185 403.02 141.778C405.2 145.933 412.096 174.073 410.407 177.935C408.833 181.536 408.898 180.65 410.042 183.066C411.186 185.482 412.696 182.766 411.547 186.75C410.399 190.734 408.892 190.25 410.217 191.7C411.543 193.15 412.81 192.788 411.723 195.384C410.635 197.979 410.876 198.824 410.695 199.79C410.513 200.756 411.051 207.458 411.051 207.458C411.051 207.458 403.694 207.272 400.135 209.201C400.135 209.201 401.828 202.32 400.622 201.293C399.417 200.266 398.03 200.204 398.936 198.575C399.841 196.945 402.073 196.766 399.601 196.1C397.128 195.434 397.198 181.247 397.198 181.247L394.333 135.904Z" fill="#E6E6E6"/>
<path d="M379.554 121.034C386.513 121.034 392.155 115.386 392.155 108.419C392.155 101.452 386.513 95.8041 379.554 95.8041C372.595 95.8041 366.953 101.452 366.953 108.419C366.953 115.386 372.595 121.034 379.554 121.034Z" fill="#FFB6B6"/>
<path d="M388.323 119.217C390.076 117.844 390.246 115.227 391.741 113.577C394.242 110.819 395.417 107.851 394.107 104.583C392.948 101.692 393.194 98.1383 390.699 96.2775C391.925 95.8334 392.213 94.9111 391.132 94.8941C390.403 94.8826 387.685 96.2778 388.993 94.5398C390.3 92.8018 387.825 93.4878 387.988 92.7764C388.152 92.065 389.202 91.671 389.665 92.2349C389.274 91.8351 388.797 91.53 388.27 91.3429C387.744 91.1558 387.181 91.0915 386.626 91.1551C386.071 91.2187 385.537 91.4085 385.066 91.7098C384.595 92.0112 384.199 92.4163 383.908 92.8942C382.435 90.683 380.87 89.1615 378.615 90.5647C376.4 91.9429 376.429 93.6465 374.047 93.2371C372.928 93.0446 372.822 95.1624 372.057 96.0034C371.703 96.4503 371.244 96.8016 370.72 97.0253C370.196 97.2489 369.624 97.3379 369.057 97.284C367.941 97.0728 367.087 95.68 367.713 94.7305L365.082 100.74L364.021 99.4377C362.336 100.537 362.89 103.406 364.586 104.488C366.282 105.57 368.486 105.338 370.439 104.859C372.79 104.281 375.218 104.08 377.632 104.262C381.319 104.783 383.888 109.197 382.522 112.665C383.939 111.272 386.56 112.428 387.294 114.275C388.028 116.122 387.49 118.203 386.946 120.115" fill="#2F2E41"/>
</g>
<defs>
<clipPath id="clip0_20_286">
<rect width="451" height="344" fill="white"/>
</clipPath>
</defs>
</svg>
