<svg width="423" height="335" viewBox="0 0 423 335" fill="none" xmlns="http://www.w3.org/2000/svg">
<g clip-path="url(#clip0_20_323)">
<path d="M49.5593 251.998C49.1973 252.015 48.8389 251.92 48.5327 251.726C48.2264 251.532 47.9872 251.249 47.8474 250.915C47.7076 250.581 47.6739 250.212 47.751 249.858C47.8281 249.504 48.0122 249.182 48.2783 248.936C48.3229 248.759 48.3548 248.632 48.3994 248.455C48.3834 248.416 48.3674 248.378 48.3513 248.339C47.9865 247.478 47.3754 246.744 46.5945 246.229C45.8137 245.714 44.898 245.441 43.9624 245.444C43.0269 245.448 42.1133 245.727 41.3363 246.248C40.5593 246.769 39.9536 247.508 39.5953 248.372C38.1632 251.819 36.3399 255.273 35.8909 258.918C35.6932 260.529 35.7766 262.163 36.1374 263.746C32.7739 256.412 31.0273 248.44 31.016 240.372C31.0153 238.348 31.1278 236.325 31.3531 234.313C31.5392 232.663 31.7975 231.026 32.1279 229.4C33.9307 220.577 37.8014 212.308 43.4221 205.272C46.1425 203.788 48.3426 201.507 49.7258 198.734C50.2269 197.738 50.581 196.674 50.7772 195.576C50.4704 195.617 50.1585 195.642 49.8516 195.662C49.756 195.667 49.6554 195.672 49.5598 195.677L49.5237 195.679C49.1864 195.694 48.852 195.611 48.5606 195.441C48.2692 195.27 48.0334 195.019 47.8814 194.718C47.7294 194.416 47.6678 194.078 47.704 193.742C47.7402 193.407 47.8727 193.089 48.0854 192.827C48.2179 192.664 48.3505 192.501 48.4831 192.338C48.6844 192.086 48.8906 191.84 49.0919 191.589C49.1151 191.565 49.1369 191.54 49.1573 191.513C49.3887 191.227 49.6201 190.945 49.8516 190.658C49.4291 190.003 48.861 189.454 48.1914 189.054C45.8721 187.696 42.6725 188.637 40.9972 190.734C39.3169 192.831 39 195.773 39.5835 198.392C40.1574 200.622 41.1067 202.737 42.3908 204.648C42.265 204.809 42.1342 204.965 42.0084 205.126C39.7093 208.081 37.7054 211.254 36.0256 214.6C36.4341 210.852 35.9465 207.06 34.603 203.537C33.2413 200.253 30.689 197.488 28.4414 194.649C25.7417 191.24 20.2058 192.728 19.7301 197.05C19.7255 197.092 19.721 197.134 19.7166 197.176C20.0505 197.364 20.3773 197.564 20.697 197.775C21.0987 198.043 21.4099 198.427 21.5899 198.875C21.77 199.323 21.8104 199.815 21.7059 200.286C21.6014 200.758 21.3569 201.186 21.0044 201.517C20.6519 201.847 20.2078 202.063 19.7303 202.136L19.6815 202.144C19.8004 203.347 20.0106 204.538 20.3103 205.709C21.1787 208.978 22.7133 212.032 24.8178 214.68C26.9224 217.328 29.5515 219.512 32.5403 221.097C32.7365 221.198 32.9277 221.298 33.1239 221.394C31.4362 226.175 30.3775 231.155 29.9746 236.208C29.7465 239.19 29.7599 242.185 30.0148 245.165L29.9998 245.059C29.3558 241.746 27.5876 238.757 24.994 236.596C21.1418 233.433 15.6994 232.268 11.5436 229.725C11.1019 229.442 10.5884 229.291 10.0636 229.289C9.53869 229.288 9.02442 229.437 8.58138 229.718C8.13833 229.999 7.78501 230.401 7.56307 230.877C7.34113 231.352 7.25983 231.881 7.32878 232.401C7.33435 232.438 7.34002 232.475 7.34577 232.512C7.96528 232.765 8.56846 233.055 9.15183 233.382C9.48567 233.571 9.81247 233.77 10.1322 233.982C10.5339 234.25 10.8451 234.633 11.0251 235.081C11.2052 235.529 11.2456 236.021 11.1411 236.493C11.0366 236.964 10.7921 237.393 10.4396 237.723C10.087 238.054 9.64297 238.27 9.16553 238.343L9.11661 238.351C9.08139 238.356 9.05121 238.361 9.01605 238.366C10.0746 240.892 11.5602 243.217 13.408 245.24C15.6905 247.688 18.4493 249.645 21.5152 250.989C24.5811 252.334 27.8894 253.038 31.2374 253.06H31.2424C32.1512 257.007 33.468 260.85 35.1715 264.525H49.2076C49.2579 264.369 49.3032 264.208 49.3485 264.052C48.0493 264.134 46.7449 264.056 45.4646 263.821C46.506 262.544 47.5474 261.256 48.5888 259.979C48.612 259.955 48.6339 259.93 48.6542 259.904C49.1824 259.25 49.7157 258.601 50.244 257.948L50.2442 257.947C50.2724 255.943 50.0423 253.944 49.5598 251.999L49.5593 251.998Z" fill="#F2F2F2"/>
<path d="M215.088 264.715C215.089 264.791 215.074 264.867 215.044 264.938C215.015 265.008 214.972 265.073 214.918 265.127C214.864 265.181 214.8 265.224 214.729 265.253C214.658 265.282 214.583 265.297 214.506 265.297H0.582154C0.427757 265.297 0.27969 265.235 0.170515 265.126C0.0613405 265.017 0 264.869 0 264.715C0 264.56 0.0613405 264.412 0.170515 264.303C0.27969 264.194 0.427757 264.133 0.582154 264.133H214.506C214.583 264.133 214.658 264.147 214.729 264.177C214.8 264.206 214.864 264.249 214.918 264.303C214.972 264.357 215.015 264.421 215.044 264.492C215.074 264.562 215.089 264.638 215.088 264.715Z" fill="#CCCCCC"/>
<path d="M112.019 189.967C111.213 189.774 110.375 189.76 109.564 189.926C108.752 190.092 107.987 190.434 107.322 190.928C106.657 191.422 106.108 192.055 105.714 192.784C105.321 193.512 105.092 194.318 105.043 195.145L92.8138 199.399L93.5876 207.458L110.774 201.208C112.168 201.197 113.511 200.675 114.546 199.741C115.581 198.807 116.238 197.526 116.392 196.14C116.545 194.755 116.185 193.361 115.379 192.223C114.573 191.085 113.378 190.282 112.019 189.967Z" fill="#FFB6B6"/>
<path d="M92.0879 213.391C87.2251 216.779 78.6583 218.512 66.9988 218.433C66.3533 218.434 65.7145 218.302 65.1228 218.044C64.5311 217.786 63.9994 217.408 63.5614 216.934C60.4417 213.687 60.5635 206.274 60.583 205.558L57.1634 192.677C57.0901 192.48 55.1974 187.195 57.123 183.504C57.5327 182.733 58.1045 182.06 58.7991 181.53C59.4938 181.001 60.2947 180.629 61.1471 180.438C68.3787 178.52 75.1767 197.869 76.0406 200.426L86.1891 198.699L93.1976 198.411L100.328 194.476L104.343 204.08L94.4077 211.338C93.7222 212.115 92.943 212.805 92.0879 213.391Z" fill="#2F2E41"/>
<path d="M111.67 319.902L119.145 320.251L124.05 291.595L113.017 291.08L111.67 319.902Z" fill="#FFB6B6"/>
<path d="M109.988 316.129L121.838 315.976L121.602 321.037L132.474 329.318C133.011 329.727 133.403 330.297 133.593 330.944C133.783 331.592 133.761 332.283 133.53 332.917C133.3 333.551 132.872 334.095 132.31 334.469C131.748 334.843 131.081 335.028 130.407 334.996L116.338 334.339L114.147 329.22L112.966 334.181L107.662 333.933L109.988 316.129Z" fill="#2F2E41"/>
<path d="M189.719 258.374L192.443 251.407L166.852 237.591L153.924 245.713L189.719 258.374Z" fill="#FFB6B6"/>
<path d="M185.605 258.759L189.253 247.488L193.974 249.332L205.302 241.686C205.862 241.309 206.527 241.12 207.202 241.147C207.876 241.174 208.525 241.416 209.052 241.838C209.579 242.259 209.958 242.838 210.132 243.49C210.307 244.142 210.269 244.832 210.023 245.461L204.897 258.574L199.344 259.01L203.669 261.716L201.736 266.66L185.605 258.759Z" fill="#2F2E41"/>
<path d="M42.7054 237.637C42.7054 237.637 45.8102 257.449 60.4863 258.916C75.1624 260.383 88.6906 253.774 88.6906 253.774L129.784 241.124C129.784 241.124 173.492 253.537 180.83 255.493C180.83 255.493 185.892 244.009 185.722 243.268C184.162 236.443 182.129 241.06 182.129 241.06L135.654 220.522C135.654 220.522 128.316 218.566 115.597 223.945C102.878 229.324 68.8027 242.29 68.8027 242.29L42.7054 237.637Z" fill="#2F2E41"/>
<path d="M42.8749 236.422C42.8749 236.422 40.4274 260.156 54.7237 263.782C68.3135 267.229 87.0591 263.693 87.0591 263.693L109.407 261.361C109.407 261.361 110.385 290.063 110.385 304.244C114.926 304.861 119.501 305.187 124.083 305.222C125.061 305.222 125.126 304.709 125.126 304.709L127.021 255.104C127.154 252.947 126.834 250.786 126.081 248.761C125.328 246.735 124.16 244.89 122.65 243.343C121.141 241.796 119.324 240.582 117.317 239.779C115.31 238.976 113.157 238.602 110.997 238.681C109.942 238.721 108.836 238.796 107.677 238.905C93.9294 240.223 76.862 237.422 76.862 237.422L42.8749 236.422Z" fill="#2F2E41"/>
<path d="M82.529 201.991C82.529 201.991 88.3329 237.074 84.4106 239.874C80.4884 242.675 75.1096 242.686 75.1096 242.686L73.8589 223.316L82.529 201.991Z" fill="#2F2E41"/>
<path d="M72.8491 158.905L80.6092 166.276C84.2161 169.702 86.6069 174.21 87.4191 179.117C88.2312 184.024 87.4205 189.062 85.1098 193.466L81.4003 200.537L72.8491 158.905Z" fill="#2F2E41"/>
<path d="M71.1138 160.145L81.6286 172.116C83.9363 174.744 85.3664 178.025 85.7195 181.504C85.8799 183.083 85.8154 184.678 85.528 186.239L81.5654 207.772L78.5869 238.867C78.5869 238.867 55.5927 245.831 53.2391 235.078C50.8855 224.324 71.1138 160.145 71.1138 160.145Z" fill="#1C88C7"/>
<path d="M61.2439 241.79C46.1284 239.272 42.4257 238.772 42.195 238.684L41.964 238.596L43.4791 229.508L49.8767 213.794C50.2922 208.654 52.9869 201.69 51.4453 196.096C46.9638 179.833 54.2448 156.852 57.5745 155.092L66.8054 149.043L70.0456 152.013L75.6639 159.874C80.2864 180.457 83.479 199.641 83.3238 200.813L80.4707 220.963L77.1089 228.692C66.9101 233.611 73.7682 243.876 61.2439 241.79Z" fill="#2F2E41"/>
<path d="M88.6101 227.007L112.343 220.66L114.433 220.165L115.923 219.811L117.66 219.401L117.673 219.398C117.926 219.34 118.191 219.384 118.411 219.52L127.223 230.081C127.303 230.131 127.373 230.194 127.43 230.268C127.454 230.287 127.475 230.309 127.493 230.334C127.591 230.467 127.654 230.621 127.677 230.785C127.701 230.948 127.684 231.114 127.628 231.269C127.572 231.424 127.479 231.563 127.356 231.674C127.234 231.784 127.086 231.863 126.926 231.903L91.521 240.048C91.3375 240.089 91.146 240.078 90.9686 240.015C90.7913 239.953 90.6352 239.841 90.5185 239.694L90.1592 239.228L88.2 229.798L88.0606 228.573C87.9717 228.46 87.909 228.328 87.8769 228.188C87.8199 227.934 87.8648 227.669 88.002 227.448C88.1391 227.227 88.3575 227.069 88.6101 227.007Z" fill="#E6E6E6"/>
<path opacity="0.17" d="M90.1591 239.227L90.5205 239.694C90.6369 239.841 90.7925 239.953 90.9694 240.015C91.1463 240.078 91.3372 240.089 91.5203 240.048L126.927 231.904C127.087 231.864 127.234 231.785 127.357 231.675C127.479 231.564 127.572 231.425 127.628 231.27C127.684 231.115 127.701 230.949 127.677 230.786C127.654 230.623 127.59 230.468 127.492 230.335C127.475 230.31 127.455 230.288 127.431 230.269L90.1591 239.227Z" fill="black"/>
<path d="M117.483 219.332L116.842 174.215C116.816 173.943 116.898 173.672 117.071 173.461L121.608 164.023L122.079 163.45C122.254 163.241 122.504 163.109 122.776 163.082L123.764 162.99C124.036 162.963 124.307 163.045 124.518 163.219C124.73 163.392 124.863 163.642 124.89 163.914L125.779 211.652L125.78 211.655L126.221 216.252L126.743 221.71L126.744 221.717L127.559 230.209C127.575 230.354 127.558 230.501 127.511 230.639C127.464 230.777 127.388 230.904 127.287 231.009C127.189 231.116 127.069 231.202 126.935 231.259C126.801 231.316 126.657 231.344 126.512 231.341L125.869 231.328C125.623 231.322 125.386 231.229 125.202 231.065L124.843 230.742L124.676 230.591L117.824 220.002C117.629 219.83 117.507 219.591 117.483 219.332Z" fill="#E6E6E6"/>
<path opacity="0.17" d="M121.609 164.023L124.675 230.592L124.843 230.742L125.201 231.064C125.385 231.228 125.622 231.321 125.869 231.327L126.512 231.34C126.658 231.343 126.802 231.314 126.936 231.257C127.07 231.2 127.19 231.115 127.289 231.008C127.388 230.902 127.463 230.775 127.51 230.637C127.556 230.5 127.573 230.353 127.56 230.209L124.889 163.916C124.863 163.644 124.729 163.393 124.519 163.219C124.308 163.045 124.036 162.962 123.764 162.988L122.775 163.083C122.64 163.095 122.51 163.134 122.391 163.197C122.271 163.261 122.166 163.347 122.081 163.452L121.609 164.023Z" fill="black"/>
<path d="M121.867 166.713L117.718 176.95L118.231 207.574L122.723 214.067L121.867 166.713Z" fill="#1C88C7"/>
<path d="M91.3453 226.737C91.1182 226.802 90.9262 226.954 90.8113 227.16C90.6965 227.367 90.6682 227.61 90.7328 227.837L92.5607 235.451L94.2733 234.964L92.4455 227.349C92.3807 227.122 92.2285 226.93 92.0222 226.816C91.8159 226.701 91.5724 226.673 91.3453 226.737Z" fill="#2F2E41"/>
<path d="M94.7706 225.762C94.5435 225.827 94.3515 225.979 94.2366 226.185C94.1218 226.392 94.0935 226.635 94.1581 226.862L94.5482 228.232L96.2609 227.744L95.8708 226.375C95.806 226.148 95.6538 225.956 95.4475 225.841C95.2412 225.726 94.9977 225.698 94.7706 225.762Z" fill="#2F2E41"/>
<path d="M98.196 224.787C97.9689 224.852 97.7769 225.004 97.662 225.21C97.5472 225.417 97.5189 225.66 97.5835 225.887L97.9737 227.257L99.6863 226.769L99.2962 225.4C99.2314 225.173 99.0792 224.981 98.8729 224.866C98.6666 224.751 98.4231 224.723 98.196 224.787Z" fill="#2F2E41"/>
<path d="M101.621 223.812C101.394 223.877 101.202 224.029 101.087 224.236C100.972 224.442 100.944 224.685 101.009 224.912L101.399 226.282L103.112 225.794L102.721 224.425C102.657 224.198 102.504 224.006 102.298 223.891C102.092 223.776 101.848 223.748 101.621 223.812Z" fill="#2F2E41"/>
<path d="M105.047 222.838C104.82 222.902 104.627 223.054 104.513 223.261C104.398 223.467 104.37 223.71 104.434 223.937L104.824 225.307L106.537 224.819L106.147 223.45C106.082 223.223 105.93 223.031 105.723 222.916C105.517 222.801 105.274 222.773 105.047 222.838Z" fill="#2F2E41"/>
<path d="M108.472 221.863C108.245 221.927 108.053 222.08 107.938 222.286C107.823 222.492 107.795 222.735 107.859 222.962L108.25 224.332L109.962 223.844L109.572 222.475C109.507 222.248 109.355 222.056 109.149 221.941C108.942 221.826 108.699 221.798 108.472 221.863Z" fill="#2F2E41"/>
<path d="M111.897 220.888C111.67 220.952 111.478 221.105 111.363 221.311C111.248 221.517 111.22 221.76 111.285 221.987L111.675 223.357L113.387 222.869L112.997 221.5C112.933 221.273 112.78 221.081 112.574 220.966C112.368 220.851 112.124 220.823 111.897 220.888Z" fill="#2F2E41"/>
<path d="M115.323 219.913C115.096 219.978 114.903 220.13 114.789 220.336C114.674 220.542 114.646 220.785 114.71 221.013L115.1 222.382L116.813 221.895L116.423 220.525C116.358 220.298 116.206 220.106 115.999 219.991C115.793 219.876 115.55 219.848 115.323 219.913Z" fill="#2F2E41"/>
<path d="M95.4895 228.885C95.2624 228.949 95.0703 229.102 94.9555 229.308C94.8406 229.514 94.8124 229.757 94.877 229.984L95.2671 231.354L96.9798 230.866L96.5896 229.497C96.5249 229.27 96.3727 229.078 96.1664 228.963C95.9601 228.848 95.7166 228.82 95.4895 228.885Z" fill="#2F2E41"/>
<path d="M98.9148 227.91C98.6877 227.974 98.4956 228.127 98.3808 228.333C98.2659 228.539 98.2377 228.782 98.3023 229.009L98.6924 230.379L100.405 229.892L100.015 228.522C99.9502 228.295 99.7979 228.103 99.5916 227.988C99.3853 227.873 99.1419 227.845 98.9148 227.91Z" fill="#2F2E41"/>
<path d="M102.34 226.935C102.113 227 101.921 227.152 101.806 227.358C101.691 227.564 101.663 227.808 101.728 228.035L102.118 229.404L103.83 228.917L103.44 227.547C103.376 227.32 103.223 227.128 103.017 227.013C102.811 226.899 102.567 226.87 102.34 226.935Z" fill="#2F2E41"/>
<path d="M105.766 225.96C105.538 226.025 105.346 226.177 105.231 226.383C105.117 226.589 105.088 226.833 105.153 227.06L105.543 228.429L107.256 227.942L106.866 226.572C106.801 226.345 106.649 226.153 106.442 226.038C106.236 225.924 105.993 225.895 105.766 225.96Z" fill="#2F2E41"/>
<path d="M109.191 224.985C108.964 225.05 108.772 225.202 108.657 225.408C108.542 225.614 108.514 225.858 108.578 226.085L108.968 227.454L110.681 226.967L110.291 225.597C110.226 225.37 110.074 225.178 109.868 225.063C109.661 224.949 109.418 224.92 109.191 224.985Z" fill="#2F2E41"/>
<path d="M112.616 224.01C112.389 224.075 112.197 224.227 112.082 224.433C111.967 224.639 111.939 224.883 112.004 225.11L112.394 226.479L114.106 225.992L113.716 224.622C113.651 224.395 113.499 224.203 113.293 224.089C113.087 223.974 112.843 223.946 112.616 224.01Z" fill="#2F2E41"/>
<path d="M116.041 223.035C115.814 223.1 115.622 223.252 115.507 223.458C115.393 223.665 115.364 223.908 115.429 224.135L115.819 225.504L117.532 225.017L117.142 223.647C117.077 223.42 116.925 223.228 116.718 223.114C116.512 222.999 116.269 222.971 116.041 223.035Z" fill="#2F2E41"/>
<path d="M96.2083 232.007C95.9813 232.072 95.7892 232.224 95.6744 232.43C95.5595 232.636 95.5313 232.88 95.5959 233.107L95.986 234.476L97.6986 233.989L97.3085 232.619C97.2438 232.392 97.0915 232.2 96.8852 232.085C96.6789 231.971 96.4355 231.942 96.2083 232.007Z" fill="#2F2E41"/>
<path d="M99.6336 231.032C99.4066 231.097 99.2145 231.249 99.0996 231.455C98.9848 231.661 98.9566 231.905 99.0212 232.132L99.4113 233.501L101.124 233.014L100.734 231.644C100.669 231.417 100.517 231.225 100.311 231.111C100.104 230.996 99.8607 230.968 99.6336 231.032Z" fill="#2F2E41"/>
<path d="M103.059 230.057C102.832 230.122 102.64 230.274 102.525 230.48C102.41 230.686 102.382 230.93 102.447 231.157L102.837 232.526L104.549 232.039L104.159 230.669C104.094 230.442 103.942 230.25 103.736 230.136C103.53 230.021 103.286 229.993 103.059 230.057Z" fill="#2F2E41"/>
<path d="M106.484 229.082C106.257 229.147 106.065 229.299 105.95 229.505C105.836 229.712 105.807 229.955 105.872 230.182L106.262 231.551L107.975 231.064L107.585 229.694C107.52 229.467 107.368 229.276 107.161 229.161C106.955 229.046 106.711 229.018 106.484 229.082Z" fill="#2F2E41"/>
<path d="M109.91 228.107C109.683 228.172 109.491 228.324 109.376 228.53C109.261 228.737 109.233 228.98 109.297 229.207L109.687 230.577L111.4 230.089L111.01 228.72C110.945 228.493 110.793 228.301 110.587 228.186C110.38 228.071 110.137 228.043 109.91 228.107Z" fill="#2F2E41"/>
<path d="M113.335 227.132C113.108 227.197 112.916 227.349 112.801 227.556C112.686 227.762 112.658 228.005 112.722 228.232L113.113 229.602L114.825 229.114L114.435 227.745C114.37 227.518 114.218 227.326 114.012 227.211C113.806 227.096 113.562 227.068 113.335 227.132Z" fill="#2F2E41"/>
<path d="M116.76 226.157C116.533 226.222 116.341 226.374 116.226 226.581C116.111 226.787 116.083 227.03 116.148 227.257L116.538 228.627L118.251 228.139L117.86 226.77C117.796 226.543 117.643 226.351 117.437 226.236C117.231 226.121 116.987 226.093 116.76 226.157Z" fill="#2F2E41"/>
<path d="M106.697 220.249C106.237 219.56 105.632 218.98 104.924 218.549C104.216 218.119 103.423 217.85 102.599 217.759C101.776 217.669 100.943 217.76 100.158 218.027C99.3739 218.293 98.6575 218.728 98.0596 219.301L86.2003 214.104L81.283 220.538L98.1337 227.642C99.1635 228.582 100.503 229.112 101.897 229.132C103.292 229.151 104.645 228.658 105.7 227.747C106.756 226.836 107.44 225.569 107.624 224.187C107.808 222.805 107.478 221.404 106.697 220.249Z" fill="#FFB6B6"/>
<path d="M76.1463 223.867C70.2764 223.044 62.8175 218.489 54.3253 210.503C53.8509 210.065 53.4727 209.534 53.2145 208.943C52.9563 208.351 52.8238 207.713 52.8253 207.067C52.7484 202.566 57.8822 197.215 58.3838 196.704L64.6433 184.937C64.7236 184.742 66.9331 179.581 70.8563 178.185C71.6812 177.899 72.5585 177.794 73.4277 177.878C74.297 177.963 75.1376 178.234 75.892 178.674C82.4981 182.186 74.3133 200.991 73.2066 203.452L81.8211 209.086L87.1544 213.641L95.0582 215.605L91.4652 225.374L79.2442 223.939C78.2126 224.043 77.172 224.019 76.1463 223.867Z" fill="#2F2E41"/>
<path d="M87.7211 134.86C88.7104 126.606 82.9643 119.131 74.8868 118.163C66.8092 117.196 59.459 123.103 58.4696 131.357C57.4803 139.611 63.2264 147.086 71.3039 148.054C79.3815 149.021 86.7317 143.114 87.7211 134.86Z" fill="#FFB6B6"/>
<path d="M34.7354 121.94C37.5688 119.34 39.2116 115.636 41.5934 112.584C43.9753 109.531 47.7869 107 51.3488 108.203C53.8042 109.033 55.4844 111.487 56.1729 114.082C56.8613 116.677 56.7186 119.431 56.5705 122.127C57.1687 116.621 61.432 111.724 66.635 110.567C71.8376 109.411 77.578 112.083 80.1856 116.877C81.7066 115.772 83.5802 115.264 85.4511 115.449C87.3221 115.633 89.0603 116.497 90.3364 117.877C92.8419 120.72 92.891 125.566 90.444 128.516C87.9971 131.467 83.385 132.123 80.318 129.956L79.0308 130.884C79.4099 133.244 77.8212 135.787 75.5908 136.391C73.7821 136.881 71.3604 136.474 70.498 138.206C69.8952 139.416 70.5767 140.867 71.3572 141.946C72.1375 143.025 73.0822 144.156 73.0287 145.514C72.9483 147.562 70.6805 148.732 68.7226 148.931C64.0015 149.413 59.1554 146.674 56.9918 142.301C56.9501 142.217 56.9039 142.132 56.8534 142.046C55.5945 139.968 54.7728 137.655 54.4385 135.248C54.1041 132.842 54.2642 130.392 54.9088 128.05C55.1702 127.13 55.1036 126.415 54.4837 126.116C51.8043 124.821 43.7336 125.897 41.1461 127.434C38.5583 128.97 36.3721 131.151 33.8576 132.815C31.3429 134.48 28.2553 135.626 25.4206 134.751C23.1502 134.05 21.3776 132.13 20.293 129.939C19.2086 127.748 18.7281 125.289 18.3256 122.853C23.1026 126.432 30.2755 126.032 34.7354 121.94Z" fill="#2F2E41"/>
<path d="M422.135 16.8626H199.893C199.662 16.8577 199.442 16.7625 199.281 16.5973C199.119 16.4322 199.028 16.2103 199.028 15.9792C199.028 15.7481 199.119 15.5262 199.281 15.3611C199.442 15.196 199.662 15.1007 199.893 15.0958H422.135C422.367 15.1007 422.587 15.196 422.748 15.3611C422.91 15.5262 423.001 15.7481 423.001 15.9792C423.001 16.2103 422.91 16.4322 422.748 16.5973C422.587 16.7625 422.367 16.8577 422.135 16.8626Z" fill="#CACACA"/>
<path d="M215.022 10.5852C217.882 10.5852 220.201 8.21564 220.201 5.29261C220.201 2.36958 217.882 0 215.022 0C212.161 0 209.842 2.36958 209.842 5.29261C209.842 8.21564 212.161 10.5852 215.022 10.5852Z" fill="#3F3D56"/>
<path d="M232.914 10.5852C235.775 10.5852 238.094 8.21564 238.094 5.29261C238.094 2.36958 235.775 0 232.914 0C230.054 0 227.735 2.36958 227.735 5.29261C227.735 8.21564 230.054 10.5852 232.914 10.5852Z" fill="#3F3D56"/>
<path d="M250.807 10.5852C253.668 10.5852 255.987 8.21564 255.987 5.29261C255.987 2.36958 253.668 0 250.807 0C247.947 0 245.628 2.36958 245.628 5.29261C245.628 8.21564 247.947 10.5852 250.807 10.5852Z" fill="#3F3D56"/>
<path d="M411.363 1.31183H398.653C398.401 1.31684 398.161 1.4204 397.984 1.60026C397.808 1.78011 397.709 2.02193 397.709 2.2738C397.709 2.52566 397.808 2.76748 397.984 2.94734C398.161 3.12719 398.401 3.23075 398.653 3.23576H411.363C411.615 3.23075 411.854 3.12719 412.031 2.94734C412.207 2.76748 412.306 2.52566 412.306 2.2738C412.306 2.02193 412.207 1.78011 412.031 1.60026C411.854 1.4204 411.615 1.31684 411.363 1.31183Z" fill="#3F3D56"/>
<path d="M411.363 4.92276H398.653C398.401 4.92777 398.161 5.03133 397.984 5.21119C397.808 5.39104 397.709 5.63286 397.709 5.88473C397.709 6.13659 397.808 6.37841 397.984 6.55827C398.161 6.73812 398.401 6.84168 398.653 6.84669H411.363C411.615 6.84168 411.854 6.73812 412.031 6.55827C412.207 6.37841 412.306 6.13659 412.306 5.88473C412.306 5.63286 412.207 5.39104 412.031 5.21119C411.854 5.03133 411.615 4.92777 411.363 4.92276Z" fill="#3F3D56"/>
<path d="M411.363 8.52893H398.653C398.401 8.53391 398.161 8.63745 397.984 8.81731C397.808 8.99717 397.709 9.23902 397.709 9.4909C397.709 9.74278 397.808 9.98462 397.984 10.1645C398.161 10.3443 398.401 10.4479 398.653 10.4529H411.363C411.614 10.4479 411.854 10.3443 412.031 10.1645C412.207 9.98462 412.306 9.74278 412.306 9.4909C412.306 9.23902 412.207 8.99717 412.031 8.81731C411.854 8.63745 411.614 8.53391 411.363 8.52893Z" fill="#3F3D56"/>
<path d="M32.5078 219.904L32.515 219.894L32.5078 219.914V219.904Z" fill="#2F2E41"/>
<path d="M337.806 51.288C341.343 51.288 344.21 48.4224 344.21 44.8874C344.21 41.3524 341.343 38.4868 337.806 38.4868C334.27 38.4868 331.403 41.3524 331.403 44.8874C331.403 48.4224 334.27 51.288 337.806 51.288Z" fill="#E6E7E8"/>
<path d="M391.777 59.0606H333.31C333.059 59.061 332.811 59.012 332.579 58.9164C332.348 58.8208 332.137 58.6805 331.96 58.5035C331.782 58.3264 331.642 58.1162 331.546 57.8848C331.45 57.6533 331.4 57.4052 331.4 57.1547C331.4 56.9041 331.45 56.656 331.546 56.4246C331.642 56.1931 331.782 55.9829 331.96 55.8059C332.137 55.6288 332.348 55.4885 332.579 55.3929C332.811 55.2973 333.059 55.2483 333.31 55.2487H391.777C392.027 55.2483 392.276 55.2973 392.507 55.3929C392.739 55.4885 392.95 55.6288 393.127 55.8059C393.304 55.9829 393.445 56.1931 393.541 56.4246C393.637 56.656 393.687 56.9041 393.687 57.1547C393.687 57.4052 393.637 57.6533 393.541 57.8848C393.445 58.1162 393.304 58.3264 393.127 58.5035C392.95 58.6805 392.739 58.8208 392.507 58.9164C392.276 59.012 392.027 59.061 391.777 59.0606Z" fill="#E6E7E8"/>
<path d="M347.831 66.5921H333.31C332.804 66.5921 332.319 66.3913 331.962 66.0338C331.604 65.6764 331.403 65.1916 331.403 64.686C331.403 64.1805 331.604 63.6957 331.962 63.3382C332.319 62.9808 332.804 62.78 333.31 62.78H347.831C348.337 62.78 348.822 62.9808 349.18 63.3382C349.537 63.6957 349.738 64.1805 349.738 64.686C349.738 65.1916 349.537 65.6764 349.18 66.0338C348.822 66.3913 348.337 66.5921 347.831 66.5921Z" fill="#E6E7E8"/>
<path d="M337.806 151.192C341.343 151.192 344.21 148.326 344.21 144.791C344.21 141.256 341.343 138.391 337.806 138.391C334.27 138.391 331.403 141.256 331.403 144.791C331.403 148.326 334.27 151.192 337.806 151.192Z" fill="#E6E7E8"/>
<path d="M391.777 158.965H333.31C332.804 158.965 332.319 158.764 331.962 158.406C331.604 158.049 331.403 157.564 331.403 157.059C331.403 156.553 331.604 156.068 331.962 155.711C332.319 155.353 332.804 155.153 333.31 155.153H391.777C392.282 155.153 392.767 155.353 393.125 155.711C393.483 156.068 393.684 156.553 393.684 157.059C393.684 157.564 393.483 158.049 393.125 158.406C392.767 158.764 392.282 158.965 391.777 158.965Z" fill="#E6E7E8"/>
<path d="M347.831 166.496H333.31C332.804 166.496 332.319 166.295 331.962 165.938C331.604 165.58 331.403 165.096 331.403 164.59C331.403 164.085 331.604 163.6 331.962 163.242C332.319 162.885 332.804 162.684 333.31 162.684H347.831C348.337 162.684 348.822 162.885 349.18 163.242C349.537 163.6 349.738 164.085 349.738 164.59C349.738 165.096 349.537 165.58 349.18 165.938C348.822 166.295 348.337 166.496 347.831 166.496Z" fill="#E6E7E8"/>
<path d="M234.749 136.032C238.285 136.032 241.152 133.166 241.152 129.631C241.152 126.096 238.285 123.23 234.749 123.23C231.212 123.23 228.345 126.096 228.345 129.631C228.345 133.166 231.212 136.032 234.749 136.032Z" fill="#E6E7E8"/>
<path d="M288.719 143.804H230.252C229.747 143.804 229.262 143.603 228.904 143.246C228.546 142.888 228.345 142.404 228.345 141.898C228.345 141.393 228.546 140.908 228.904 140.55C229.262 140.193 229.747 139.992 230.252 139.992H288.719C289.225 139.992 289.71 140.193 290.067 140.55C290.425 140.908 290.626 141.393 290.626 141.898C290.626 142.404 290.425 142.888 290.067 143.246C289.71 143.603 289.225 143.804 288.719 143.804Z" fill="#E6E7E8"/>
<path d="M244.774 151.336H230.252C229.746 151.336 229.261 151.135 228.904 150.777C228.546 150.42 228.345 149.935 228.345 149.429C228.345 148.924 228.546 148.439 228.904 148.082C229.261 147.724 229.746 147.523 230.252 147.523H244.774C245.279 147.523 245.764 147.724 246.122 148.082C246.48 148.439 246.68 148.924 246.68 149.429C246.68 149.935 246.48 150.42 246.122 150.777C245.764 151.135 245.279 151.336 244.774 151.336Z" fill="#E6E7E8"/>
<path d="M337.806 97.4743C341.343 97.4743 344.21 94.6086 344.21 91.0737C344.21 87.5387 341.343 84.673 337.806 84.673C334.27 84.673 331.403 87.5387 331.403 91.0737C331.403 94.6086 334.27 97.4743 337.806 97.4743Z" fill="#E6E7E8"/>
<path d="M391.777 105.247H333.31C332.804 105.247 332.319 105.046 331.962 104.689C331.604 104.331 331.403 103.846 331.403 103.341C331.403 102.835 331.604 102.351 331.962 101.993C332.319 101.636 332.804 101.435 333.31 101.435H391.777C392.282 101.435 392.767 101.636 393.125 101.993C393.483 102.351 393.684 102.835 393.684 103.341C393.684 103.846 393.483 104.331 393.125 104.689C392.767 105.046 392.282 105.247 391.777 105.247Z" fill="#E6E7E8"/>
<path d="M368.443 112.778H333.31C332.804 112.778 332.319 112.578 331.962 112.22C331.604 111.863 331.403 111.378 331.403 110.872C331.403 110.367 331.604 109.882 331.962 109.524C332.319 109.167 332.804 108.966 333.31 108.966H368.443C368.949 108.966 369.434 109.167 369.791 109.524C370.149 109.882 370.35 110.367 370.35 110.872C370.35 111.378 370.149 111.863 369.791 112.22C369.434 112.578 368.949 112.778 368.443 112.778Z" fill="#E6E7E8"/>
<path d="M358.654 120.31H333.31C332.804 120.31 332.319 120.109 331.962 119.752C331.604 119.394 331.403 118.909 331.403 118.404C331.403 117.898 331.604 117.413 331.962 117.056C332.319 116.698 332.804 116.498 333.31 116.498H358.654C359.16 116.498 359.645 116.698 360.002 117.056C360.36 117.413 360.561 117.898 360.561 118.404C360.561 118.909 360.36 119.394 360.002 119.752C359.645 120.109 359.16 120.31 358.654 120.31Z" fill="#E6E7E8"/>
<path d="M279.425 49.4805V116.682C279.424 117.151 279.238 117.6 278.906 117.932C278.575 118.264 278.125 118.451 277.656 118.452H242.232C238.313 114.82 235.098 110.495 232.748 105.697C232.593 105.388 232.446 105.076 232.306 104.76C230.164 100.116 228.868 95.1275 228.478 90.0288C228.452 89.7148 228.43 89.4033 228.415 89.0869C228.367 88.2777 228.345 87.4565 228.345 86.6329C228.338 81.1507 229.374 75.7172 231.397 70.6217C231.518 70.3053 231.646 69.9913 231.779 69.6798C234.443 63.4188 238.539 57.8696 243.738 53.4778C244.047 53.2145 244.359 52.9585 244.675 52.7097L244.748 52.6517C248.816 49.4323 253.856 47.6883 259.045 47.7052H277.656C278.126 47.7067 278.576 47.8944 278.907 48.2272C279.239 48.56 279.425 49.0108 279.425 49.4805Z" fill="#1C88C7"/>
<path opacity="0.2" d="M279.519 70.6217V69.6798H263.721V47.7052H262.781V69.6798H244.675V52.7098C244.359 52.9585 244.046 53.2145 243.737 53.4778V69.6798H231.779C231.646 69.9913 231.518 70.3053 231.397 70.6217H243.737V89.0869H228.415C228.43 89.4032 228.452 89.7148 228.478 90.0288H243.737V104.76H232.306C232.446 105.076 232.593 105.388 232.748 105.697H243.737V118.08H244.675V105.697H262.781V118.08H263.721V105.697H279.519V104.76H263.721C263.72 102.825 264.101 100.91 264.842 99.1221C265.582 97.3347 266.668 95.7106 268.036 94.3426C269.405 92.9746 271.03 91.8896 272.818 91.1494C274.606 90.4092 276.523 90.0285 278.458 90.0288H279.519V89.0869H263.721V70.6217H279.519ZM262.781 104.76H244.675V90.0288H262.781V104.76ZM262.781 89.0869H244.675V88.7173C244.675 86.3408 245.144 83.9876 246.054 81.7921C246.964 79.5965 248.297 77.6016 249.979 75.9213C251.66 74.241 253.656 72.9081 255.852 71.9988C258.049 71.0895 260.403 70.6216 262.781 70.6217V89.0869Z" fill="black"/>
<path d="M277.737 104.997C277.358 105.015 276.983 104.915 276.663 104.712C276.343 104.51 276.092 104.213 275.946 103.864C275.8 103.514 275.765 103.128 275.845 102.758C275.926 102.387 276.118 102.051 276.397 101.794C276.444 101.608 276.477 101.475 276.524 101.29C276.507 101.25 276.49 101.209 276.473 101.169C274.771 97.1117 263.908 108.423 263.438 112.236C263.232 113.922 263.319 115.63 263.696 117.286C260.178 109.614 258.35 101.275 258.339 92.8351C258.338 90.7171 258.456 88.6008 258.691 86.4961C258.886 84.7706 259.156 83.0574 259.502 81.3565C261.388 72.1275 265.437 63.4773 271.317 56.1163C274.68 56.3039 277.627 55.7918 277.911 49.2775C277.962 48.1187 278.822 47.1154 279.011 45.9739C278.69 46.016 278.364 46.0422 278.043 46.0633C277.943 46.0685 277.837 46.0738 277.737 46.0791L277.7 46.0807C277.347 46.0966 276.997 46.0101 276.692 45.8318C276.387 45.6535 276.141 45.3909 275.982 45.0757C275.823 44.7604 275.758 44.406 275.796 44.055C275.834 43.704 275.973 43.3714 276.195 43.0973C276.334 42.9268 276.472 42.7564 276.611 42.586C276.822 42.323 277.038 42.0652 277.248 41.8022C277.272 41.7772 277.295 41.7509 277.316 41.7233C277.559 41.4234 277.801 41.1288 278.043 40.829C277.601 40.1434 277.006 39.5691 276.306 39.1509C273.88 37.7305 270.533 38.7143 268.78 40.9079C267.022 43.1015 266.691 46.179 267.301 48.9198C267.902 51.2519 268.895 53.4649 270.238 55.4639C270.106 55.6322 269.97 55.7953 269.838 55.9637C267.433 59.055 265.337 62.3746 263.579 65.8747C264.076 61.9927 257.997 47.9736 255.646 45.0041C252.821 41.4373 247.03 42.994 246.533 47.5154C246.528 47.5592 246.523 47.603 246.518 47.6467C246.868 47.8436 247.21 48.0527 247.544 48.2738C247.964 48.5544 248.29 48.9554 248.478 49.4241C248.666 49.8929 248.709 50.4075 248.599 50.9007C248.49 51.3939 248.234 51.8426 247.866 52.1879C247.497 52.5333 247.032 52.7593 246.533 52.8363L246.482 52.8441C241.807 59.5158 256.793 76.8805 260.544 72.9816C258.778 77.9829 257.671 83.1925 257.249 88.4793C257.011 91.5983 257.025 94.7316 257.291 97.8483L257.276 97.7379C256.442 90.9495 242.144 80.8565 237.969 81.6972C235.563 82.1815 233.194 82.0714 233.559 84.4966C233.565 84.5353 233.571 84.5741 233.577 84.6128C234.225 84.8766 234.856 85.1805 235.466 85.5228C235.816 85.7198 236.158 85.9288 236.492 86.1499C236.912 86.4305 237.238 86.8315 237.426 87.3002C237.614 87.769 237.657 88.2837 237.547 88.7768C237.438 89.27 237.182 89.7187 236.814 90.0641C236.445 90.4095 235.98 90.6354 235.481 90.7124L235.43 90.7203C235.393 90.7255 235.361 90.7308 235.324 90.7361C233.197 98.0545 248.977 109.866 258.57 106.107H258.576C259.526 110.237 260.904 114.257 262.686 118.102H277.369C277.422 117.938 277.469 117.77 277.516 117.607C276.157 117.692 274.793 117.611 273.454 117.365C274.543 116.029 275.632 114.682 276.722 113.346C276.746 113.321 276.769 113.295 276.79 113.267C277.343 112.583 277.901 111.905 278.453 111.221L278.453 111.22C278.483 109.124 278.242 107.032 277.737 104.997L277.737 104.997ZM260.923 71.9348L260.93 71.9243L260.923 71.9453V71.9348ZM257.67 101.241L257.544 100.957C257.549 100.752 257.549 100.547 257.544 100.337C257.544 100.279 257.534 100.221 257.534 100.163C257.581 100.526 257.623 100.889 257.676 101.252L257.67 101.241Z" fill="#2F2E41"/>
</g>
<defs>
<clipPath id="clip0_20_323">
<rect width="423" height="335" fill="white"/>
</clipPath>
</defs>
</svg>
